<?xml version="1.0" encoding="utf-8"?>
<!-- Generator: Adobe Illustrator 28.2.0, SVG Export Plug-In . SVG Version: 6.00 Build 0)  -->
<svg version="1.1" id="a" xmlns="http://www.w3.org/2000/svg" xmlns:xlink="http://www.w3.org/1999/xlink" x="0px" y="0px"
	 viewBox="0 0 226.1 226.1" style="enable-background:new 0 0 226.1 226.1;" xml:space="preserve"
	 width="200" height="200">
<style type="text/css">
	.st0{fill:#FFFFFF;}
</style>
<g>
	<path class="st0" d="M98.2,103.4c1.1,0.1,2.3-0.1,3.5,0c2.7,0.3,3.8-0.5,3.9-3.5c0-3.2-1.4-3.5-3.9-3.4c-2.8,0.1-5.6,0.2-8.5,0
		c-2.6-0.2-3.5,0.8-3.4,3.4c0.2,4.3,0,8.6,0,13c0,4.5,0,9,0,13.4c0,1.8,0,3.4,2.5,3.4c3.8,0,7.6,0,11.5,0c1.5,0,1.8-0.8,2.1-2.2
		c0.7-4.3-1.7-4.4-4.9-4.5c-2.3,0-5.9,1.9-6.1-3.2c-0.2-4.7,3-3.3,5.3-3.4c2.3-0.1,4.5,0.5,4.5-3.3c0-3.8-2.4-3.2-4.6-3.3
		c-0.5,0-1,0-1.5,0c-2.3,0.2-3.7-0.3-3.7-3.2C94.7,104,95.8,103.2,98.2,103.4z"/>
	<path class="st0" d="M75.7,122.6c-1.2-0.8-2.3-1.9-3.7-3l0,0c-3.1,3.2-3.3,5.8,0.3,8.5c4,3,8.3,3,11.2-0.1c4.6-5,3-14.4-3-17.6
		c-2.6-1.4-7.2-2.2-4.7-6.4c2.2-3.8,5,0.5,8,1.3c-0.2-2.2,2.8-3.4,1-6c-3.4-4.9-11.2-4.5-13.7,1c-2.2,4.8-2.2,13.1,5.5,15.9
		c0.8,0.3,1.5,0.6,2.3,1c2.2,1.2,2.6,3.1,1.5,5.1C79.2,124.5,77.3,123.7,75.7,122.6z"/>
	<path class="st0" d="M131.4,96.6c-2.4,0-4.4-0.2-5.1,3.1c-1,4.5-2.7,8.9-4.5,14.6c-1.8-5.9-3.3-10.5-4.5-15.1
		c-0.8-3.3-3.3-2.6-5.5-2.6c-2.7,0-2,2.2-2,3.7c-0.1,8.8,0,17.6,0,26.4c0,2,0.5,3.1,2.8,3.1c2.3,0,2.2-1.5,2.2-3c0-4.9,0-9.9,0-14.8
		c2,3.8,3.4,7.8,4.7,11.8c0.4,1.4,0.3,3.3,2.3,3.4c2.4,0.1,2.2-2.1,2.7-3.6c1.3-3.5,2.3-7.1,3.4-10.7h0c0.3,0.1,0.6,0.1,0.9,0.2
		c0,4.5,0,9,0,13.4c0,1.8,0.1,3.3,2.5,3.3c2.7,0,2.4-1.7,2.4-3.3c0-8.7,0.1-17.3,0-25.9C133.6,99,134.6,96.6,131.4,96.6z"/>
	<path class="st0" d="M30.7,96.5c-2.8,0.1-3.3,1.1-3.2,3.6c0.1,4.3,0,8.6,0,12.9l0,0c0,4.5,0,9,0,13.4c0,1.2-0.5,2.6,1.4,3.2
		c3,1,11.7-0.2,13.3-2.1c3-3.4,3-8.7-0.2-13.8c-0.5-0.9-0.9-1.3-0.5-2.5C45.3,100.1,42.2,96.1,30.7,96.5z M34.4,103.1
		c2.4,0,3.8,0.9,3.8,3.4c0,2.2-1.2,3.2-3.4,3.3c-2.6,0.2-2.6-1.4-2.3-4.3h0C32.6,105.3,31.6,103.1,34.4,103.1z M39.5,120.1
		c-0.3,3-2.5,3.6-5,3.5c-3.5-0.2-1.7-2.9-2-4.5c-0.4-2.4,0.7-3.4,3.1-2.9C38.1,116.2,39.7,117.3,39.5,120.1z"/>
	<path class="st0" d="M51.4,126.8c0.3-3.7,2.4-4.1,5.7-4.4c4.3-0.3,4.9,2.2,5.5,5.2c0.4,2.4,2.1,2.2,3.8,2.1c1.1,0,2-0.3,1.6-1.5h0
		c-2.6-9.6-5.1-18.9-7.7-28.1c-0.5-1.6-0.5-3.6-3.3-3.6c-2.9,0-3,2-3.5,3.9c-2.3,8.3-4.7,16.6-6.9,25c-0.3,1.3-2.6,3.5,0.6,4.3
		C49.6,130.3,51.2,129.2,51.4,126.8z M54.9,113.9c0.8-1.8,0.5-4,2.3-5.6c0.5,2,1,3.8,1.5,5.7c0.6,2.1-0.9,2-2.2,2.1
		C54.9,116,54.3,115.4,54.9,113.9z"/>
	<path class="st0" d="M171.2,112.7c-2.3-4.6-4.6-9.2-6.8-13.9c-0.8-1.8-2-2.4-3.9-2.2c-2.4,0.2-1.8,2-1.8,3.3c0,8.8,0,17.6,0,26.4
		c0,1.7-0.2,3.3,2.3,3.4c3,0.1,2.5-1.9,2.5-3.6c0-4.9,0-9.8,0-16.1c1.1,1.6,1.5,2.1,1.7,2.6c2.4,4.9,4.9,9.8,7.1,14.8
		c0.9,2.1,2.4,2.5,4.4,2.3c2.4-0.2,1.7-2.1,1.7-3.4c0.1-8.8,0-17.6,0-26.4c0-1.7,0.2-3.3-2.4-3.3c-2.6,0-2.5,1.5-2.5,3.2
		c0,5.2,0,10.3,0,15.5h0c-0.3,0.1-0.6,0.2-0.9,0.3C172.2,114.6,171.7,113.7,171.2,112.7z"/>
	<path class="st0" d="M152.7,96.7c-4.5-0.1-9.5-1.5-13.2,0.7c-2.4,1.5-0.6,6.2-0.8,9.5c-0.1,2,0,4,0,6l0,0c0,4.5,0,9,0,13.5
		c0,1.7-0.2,3.5,2.3,3.5c3.8,0,7.7,0,11.5,0c1.5,0,1.8-0.8,2.1-2.1c0.9-5.5-2.9-4.3-5.9-4.4c-4.7-0.1-6.4-1.7-4.9-5.2
		c1.3-3.1,4.3-1.3,6.5-1.4c2.4-0.2,3.1-1,3.1-3.3c0-2.2-0.5-3.6-3-3.4c-1,0.1-2-0.1-3,0c-2.7,0.3-3.8-0.6-3.8-3.6
		c0-3.1,1.8-3,3.9-2.9c1.7,0,3.3,0,5,0c2.3-0.1,2-1.8,2-3.3C154.3,98.8,155,96.8,152.7,96.7z"/>
	<path class="st0" d="M195,96.6c-3.7,0-7.3,0-11,0c-1.7,0-2.5,0.8-2.3,2.4c0.2,1.5-0.9,4.2,1.5,4c5.7-0.3,4.4,3.4,4.4,6.5
		c0,2.3,0,4.6,0,7l0,0c0,3.3,0,6.6,0,10c0,1.8,0,3.3,2.5,3.3c2.6,0,2.5-1.5,2.5-3.3c0-6.6,0-13.3,0-19.9c0-2.1,0.1-3.7,2.8-3.3
		c3.4,0.5,3-1.9,3.2-4.1C198.8,96.2,196.8,96.6,195,96.6z"/>
</g>
</svg>
